<?xml version="1.0" encoding="UTF-8"?>
<svg version="1.1" xmlns="http://www.w3.org/2000/svg" width="512" height="128">
<path d="M0 0 C6.27 0 12.54 0 19 0 C22.67912652 8.327892 26.34463833 16.66165066 30 25 C30.46341797 26.05493652 30.92683594 27.10987305 31.40429688 28.19677734 C32.67143711 31.08691769 33.93078304 33.98031487 35.1875 36.875 C35.57349365 37.75309326 35.9594873 38.63118652 36.35717773 39.53588867 C36.70723877 40.34646729 37.0572998 41.1570459 37.41796875 41.9921875 C37.72500732 42.69714355 38.0320459 43.40209961 38.34838867 44.12841797 C39 46 39 46 39 49 C39.66 49 40.32 49 41 49 C41.14767822 48.45287354 41.29535645 47.90574707 41.44750977 47.34204102 C43.52967463 40.00634518 46.27467951 32.98029501 49.13354492 25.92260742 C49.93681566 23.93918975 50.73358589 21.95325787 51.52929688 19.96679688 C54.22737691 13.25193171 57.00526614 6.5884145 60 0 C65.61 0 71.22 0 77 0 C77 0.99 77 1.98 77 3 C75.02 3 73.04 3 71 3 C71.33 21.81 71.66 40.62 72 60 C74.31 60.99 76.62 61.98 79 63 C79 63.99 79 64.98 79 66 C70.09 66 61.18 66 52 66 C52 65.01 52 64.02 52 63 C52.969375 62.71125 53.93875 62.4225 54.9375 62.125 C58.10664203 61.35785318 58.10664203 61.35785318 59 59 C59.08918777 57.61090696 59.11759541 56.21763093 59.11352539 54.82568359 C59.11344986 53.96494232 59.11337433 53.10420105 59.11329651 52.21737671 C59.10813522 51.28712677 59.10297394 50.35687683 59.09765625 49.3984375 C59.09553383 47.97103745 59.09553383 47.97103745 59.09336853 46.51480103 C59.08776012 43.46816903 59.07520619 40.42160987 59.0625 37.375 C59.05748608 35.31250106 59.05292299 33.25000097 59.04882812 31.1875 C59.03778796 26.12497183 59.02051767 21.06249827 59 16 C57.44085255 19.75101505 55.88374007 23.5028689 54.32788086 27.25524902 C53.50194303 29.24531834 52.67387154 31.2344909 51.84570312 33.22363281 C49.34679207 39.23812005 46.87545072 45.2545532 44.5625 51.34375 C44.20865234 52.26768555 43.85480469 53.19162109 43.49023438 54.14355469 C42.8428536 55.84755793 42.20816511 57.55645167 41.58789062 59.27050781 C40.71875 61.546875 40.71875 61.546875 39 65 C36.89257813 65.71582031 36.89257813 65.71582031 35 66 C27.66666667 48.66666667 20.33333333 31.33333333 13 14 C13 29.18 13 44.36 13 60 C14.98 60.99 16.96 61.98 19 63 C19 63.99 19 64.98 19 66 C12.73 66 6.46 66 0 66 C0 65.01 0 64.02 0 63 C2.31 62.34 4.62 61.68 7 61 C7.33 41.86 7.66 22.72 8 3 C5.36 3 2.72 3 0 3 C0 2.01 0 1.02 0 0 Z " fill="#000000" transform="translate(156,23)"/>
<path d="M0 0 C0.75 3.25 0.75 3.25 1 7 C-1.0080387 9.93482579 -2.32464216 10.8158115 -5.75 11.75 C-6.86375 11.87375 -6.86375 11.87375 -8 12 C-7.89300781 12.556875 -7.78601563 13.11375 -7.67578125 13.6875 C-6.76498906 19.48523095 -6.94300016 23.88260466 -10 29 C-17.22686245 36.74306691 -28.05158963 37.83195384 -38 40 C-38 41.32 -38 42.64 -38 44 C-36.95658447 44.06731323 -36.95658447 44.06731323 -35.89208984 44.13598633 C-32.71867973 44.34823423 -29.54700118 44.58017927 -26.375 44.8125 C-24.73337891 44.91788086 -24.73337891 44.91788086 -23.05859375 45.02539062 C-16.12442158 45.5507067 -10.97743739 46.26397646 -5.6875 51.125 C-3.37151828 55.07074663 -2.68819471 58.43699571 -3 63 C-4.29423292 67.56598944 -6.22106135 70.35652894 -9.875 73.375 C-15.74724024 76.42856493 -20.79215413 77.38949932 -27.3125 77.375 C-28.06289551 77.37338867 -28.81329102 77.37177734 -29.58642578 77.37011719 C-36.50419477 77.21722175 -41.78876738 75.82199231 -47.0625 71.1875 C-48.43989785 67.97357169 -48.3763327 65.44971638 -48 62 C-46.8125 60 -46.8125 60 -45 59 C-42.3125 59.3125 -42.3125 59.3125 -40 60 C-39.48493163 62.57534185 -38.99355671 65.06926534 -38.75 67.6875 C-38.2345295 70.18997155 -38.2345295 70.18997155 -35.8828125 71.125 C-29.42657281 73.08461747 -21.08114792 73.22530191 -14.75 70.6875 C-11.78610572 69.13313828 -11.78610572 69.13313828 -10 66 C-10 62.91666667 -10 62.91666667 -11 60 C-14.56687243 57.34725065 -18.73979601 57.67678898 -23 57.5625 C-41.39569957 56.75214282 -41.39569957 56.75214282 -45.7890625 52.109375 C-47.63981028 48.88549177 -47.51139139 46.64366366 -47 43 C-44.4352833 39.53008917 -42.89391378 38.21926187 -38.6875 37.1875 C-37.800625 37.125625 -36.91375 37.06375 -36 37 C-36 36.34 -36 35.68 -36 35 C-37.36125 34.7215625 -37.36125 34.7215625 -38.75 34.4375 C-42.17454411 32.9227978 -43.6366297 31.61731804 -45.30078125 28.25390625 C-46.99309856 22.79878286 -47.08878375 16.97247598 -45.1171875 11.58984375 C-42.99685102 7.83361853 -40.29137104 4.56887029 -36.3515625 2.625 C-30.18038884 0.98482095 -22.6066312 0.65042187 -16.578125 2.90625 C-14.75 4 -14.75 4 -12 6 C-11.01 6 -10.02 6 -9 6 C-8.54625 5.030625 -8.0925 4.06125 -7.625 3.0625 C-5.37531129 -1.17729795 -4.33253701 -1.2997611 0 0 Z M-32.3125 6.5625 C-35.97330607 11.85033099 -36.60073552 17.74744668 -36 24 C-34.99826089 29.47892518 -34.99826089 29.47892518 -31 33 C-28.81971604 33.35293451 -28.81971604 33.35293451 -26.5 33.3125 C-25.33984375 33.33763672 -25.33984375 33.33763672 -24.15625 33.36328125 C-21.47132014 32.91092894 -20.64121595 32.13658295 -19 30 C-17.80332797 26.40998391 -17.79461119 23.4095161 -17.75 19.625 C-17.72421875 18.31789063 -17.6984375 17.01078125 -17.671875 15.6640625 C-18.10313858 10.84828591 -19.63536112 8.36463888 -23 5 C-26.80357528 4.57738052 -29.08895287 4.38442762 -32.3125 6.5625 Z " fill="#000000" transform="translate(378,39)"/>
<path d="M0 0 C4.53489627 -0.04986353 9.0696289 -0.08593637 13.60473633 -0.10986328 C15.14382715 -0.11985006 16.68289935 -0.13344419 18.22192383 -0.15087891 C40.31810054 -0.39471857 40.31810054 -0.39471857 45.9375 4.8125 C46.48277344 5.29332031 47.02804688 5.77414063 47.58984375 6.26953125 C52.03918887 11.72953095 51.57131681 18.32556875 51 25 C49.06025358 30.92700296 45.11817765 34.31449857 39.6875 37.25 C32.60072127 39.22770569 25.30488217 39.13725248 18 39 C18.1140575 41.91747073 18.24080268 44.83344495 18.375 47.75 C18.4059375 48.575 18.436875 49.4 18.46875 50.25 C18.50742188 51.04921875 18.54609375 51.8484375 18.5859375 52.671875 C18.63306885 53.77160645 18.63306885 53.77160645 18.68115234 54.89355469 C19.05061454 57.33438149 19.63253767 58.94129909 21 61 C24.54588501 62.29920746 24.54588501 62.29920746 28 63 C28 63.99 28 64.98 28 66 C18.43 66 8.86 66 -1 66 C-1 65.01 -1 64.02 -1 63 C1.64 62.34 4.28 61.68 7 61 C7.33 41.86 7.66 22.72 8 3 C5.36 3 2.72 3 0 3 C0 2.01 0 1.02 0 0 Z M18 4 C18 14.23 18 24.46 18 35 C29.01997771 35.51816738 29.01997771 35.51816738 38 31 C41.62606828 26.46741464 41.51027974 21.44721884 41.34375 15.84765625 C40.86558478 11.88649213 39.82030831 9.82030831 37 7 C30.39663002 2.87289376 26.60567169 4 18 4 Z " fill="#000000" transform="translate(93,23)"/>
<path d="M0 0 C4.62 0 9.24 0 14 0 C14.99 2.64 15.98 5.28 17 8 C17.53625 7.236875 18.0725 6.47375 18.625 5.6875 C21.73864535 2.16416448 24.46185424 0.3736588 29.17578125 -0.3203125 C34.61306053 -0.59446104 37.7556251 0.36196437 42 4 C45.27436005 7.44018139 45.39965206 10.10487837 45.4765625 14.77734375 C45.5075 16.09541016 45.5384375 17.41347656 45.5703125 18.77148438 C45.58928374 20.16014631 45.60750582 21.54881867 45.625 22.9375 C45.67330779 25.65513122 45.73065122 28.3723919 45.7890625 31.08984375 C45.80662598 32.29503662 45.82418945 33.50022949 45.84228516 34.74194336 C45.98130158 37.61373009 46.34272875 40.20775089 47 43 C48.65 43.33 50.3 43.66 52 44 C52 45.32 52 46.64 52 48 C44.74 48 37.48 48 30 48 C30 46.68 30 45.36 30 44 C31.32 43.34 32.64 42.68 34 42 C34.02480683 37.81909587 34.04291049 33.63823128 34.05493164 29.45727539 C34.05994565 28.03636936 34.06675852 26.61546844 34.07543945 25.19458008 C34.08763388 23.14663424 34.09325772 21.0987569 34.09765625 19.05078125 C34.10289307 17.82012939 34.10812988 16.58947754 34.11352539 15.3215332 C34.01393817 12.40780381 33.67799322 9.82692674 33 7 C28.14557537 6.52407602 25.05472207 6.23093183 21 9.1875 C18.09263056 13.27598828 17.87389249 17.0185089 17.8671875 21.94140625 C17.86589844 22.85470703 17.86460937 23.76800781 17.86328125 24.70898438 C17.86908203 26.12147461 17.86908203 26.12147461 17.875 27.5625 C17.87113281 28.50802734 17.86726563 29.45355469 17.86328125 30.42773438 C17.86521484 31.79575195 17.86521484 31.79575195 17.8671875 33.19140625 C17.86831543 34.01842041 17.86944336 34.84543457 17.87060547 35.69750977 C17.99775156 37.95999052 18.25302431 39.86045241 19 42 C20.9837767 43.28436734 20.9837767 43.28436734 23 44 C23 45.32 23 46.64 23 48 C15.08 48 7.16 48 -1 48 C-1 46.68 -1 45.36 -1 44 C-0.030625 43.7525 0.93875 43.505 1.9375 43.25 C5.05153011 42.39914817 5.05153011 42.39914817 5.67163086 40.41113281 C6.13569322 37.00363849 6.23705407 33.60503448 6.31640625 30.171875 C6.33718735 29.42286926 6.35796844 28.67386353 6.37937927 27.90216064 C6.44457088 25.51819712 6.50361783 23.13412688 6.5625 20.75 C6.60571416 19.13019746 6.64932937 17.51040557 6.69335938 15.890625 C6.80022096 11.92719168 6.90157333 7.9636514 7 4 C4.36 4 1.72 4 -1 4 C-0.67 2.68 -0.34 1.36 0 0 Z " fill="#000000" transform="translate(430,41)"/>
<path d="M0 0 C0.81984375 -0.01095703 1.6396875 -0.02191406 2.484375 -0.03320312 C7.8781163 0.03183395 11.17256095 0.89668009 15.375 4.5625 C17.88324631 8.21405255 17.72074843 12.11441423 17.7890625 16.390625 C17.80842865 17.13963074 17.8277948 17.88863647 17.8477478 18.66033936 C17.90735716 21.04427836 17.95385354 23.42826614 18 25.8125 C18.03819701 27.43231231 18.07724975 29.05210468 18.1171875 30.671875 C18.21304313 34.63525406 18.29714246 38.59872819 18.375 42.5625 C20.87052484 41.78119929 20.87052484 41.78119929 23.375 40.5625 C23.705 39.5725 24.035 38.5825 24.375 37.5625 C25.365 37.5625 26.355 37.5625 27.375 37.5625 C27.10997804 41.36114807 26.57102849 43.30305052 24.25 46.375 C20.77560223 49.01856352 18.72394545 49.5625 14.375 49.5625 C11.11284959 48.07970436 8.77048423 46.21014046 6.375 43.5625 C5.26125 44.490625 5.26125 44.490625 4.125 45.4375 C-1.11029967 49.48295884 -5.08655667 50.31242898 -11.625 49.5625 C-15.75111421 47.82036289 -18.35795974 45.42486489 -20.625 41.5625 C-21.46758477 36.9580721 -21.05488937 33.51183903 -19.125 29.25 C-14.17425342 23.92794743 -6.67873641 20.82989346 0.58984375 20.4453125 C2.51861285 20.438533 4.4474052 20.49486509 6.375 20.5625 C6.2608134 18.62433265 6.13326577 16.68694901 6 14.75 C5.93039062 13.67105469 5.86078125 12.59210937 5.7890625 11.48046875 C5.56304267 8.37623814 5.56304267 8.37623814 3.375 5.5625 C0.09600551 4.77311244 -2.54556609 4.35261007 -5.875 5 C-8.31602304 7.17948486 -8.76728134 9.65716277 -9.765625 12.71875 C-10.625 14.5625 -10.625 14.5625 -13.3125 16.0625 C-14.075625 16.2275 -14.83875 16.3925 -15.625 16.5625 C-16.945 15.2425 -18.265 13.9225 -19.625 12.5625 C-18.68067262 6.54241298 -18.68067262 6.54241298 -16.06689453 4.11621094 C-10.64273663 0.59139841 -6.40705754 -0.18814375 0 0 Z M-7.4296875 28.8828125 C-9.41238409 30.93271914 -10.57272907 32.78424394 -10.765625 35.65625 C-10.44496736 39.06015421 -10.07581601 41.11168399 -7.625 43.5625 C-1.93079104 44.21952411 0.90981994 43.07085576 5.375 39.5625 C6.76656484 38.39972968 6.76656484 38.39972968 6.47265625 35.18359375 C6.46598369 33.78902923 6.45402532 32.39448257 6.4375 31 C6.43298828 30.28908203 6.42847656 29.57816406 6.42382812 28.84570312 C6.41200864 27.08459987 6.39407263 25.32353964 6.375 23.5625 C1.5879117 23.5625 -3.62091201 26.09630576 -7.4296875 28.8828125 Z " fill="#000000" transform="translate(401.625,40.4375)"/>
<path d="M0 0 C5.84498734 3.48938039 9.62198122 8.20223239 11.84765625 14.68359375 C13.79311669 23.22670264 12.91761037 32.26943123 8.3203125 39.796875 C4.33315407 45.07360942 -0.62813873 47.96404304 -7.05078125 48.92578125 C-14.30256906 49.43143312 -19.89874139 47.59643796 -25.61328125 43.05078125 C-31.51879866 36.48909524 -32.9707864 30.18658734 -32.82421875 21.48046875 C-32.21320331 14.44247607 -30.06150796 8.83069238 -25.40625 3.5234375 C-18.42308642 -2.21218923 -8.42122834 -3.05883182 0 0 Z M-17.61328125 5.05078125 C-23.77652501 12.75483595 -22.01344208 25.70026946 -21.36328125 34.98828125 C-20.85860697 38.96078883 -19.58009606 41.25848496 -16.61328125 44.05078125 C-12.06265712 45.56765596 -8.23093729 45.76973949 -3.80078125 43.80078125 C0.59858022 40.28129208 0.73774933 36.47703815 1.38671875 31.05078125 C1.54144744 28.23661096 1.57168229 25.43128536 1.57421875 22.61328125 C1.59258789 21.5449707 1.59258789 21.5449707 1.61132812 20.45507812 C1.62642907 14.91303006 1.45403151 8.51565416 -2.23828125 4.11328125 C-7.76091173 1.64263077 -12.77320136 0.90214135 -17.61328125 5.05078125 Z " fill="#000000" transform="translate(270.61328125,41.94921875)"/>
<path d="M0 0 C8.91 0 17.82 0 27 0 C27 0.99 27 1.98 27 3 C24.03 3 21.06 3 18 3 C18.00888245 3.63591568 18.01776489 4.27183136 18.0269165 4.92701721 C18.11559876 11.56201159 18.17582106 18.19683683 18.21972656 24.83227539 C18.23980771 27.30662885 18.26707823 29.78093505 18.30175781 32.25512695 C18.35042778 35.81733888 18.37300454 39.37892181 18.390625 42.94140625 C18.41127014 44.04271378 18.43191528 45.1440213 18.45318604 46.27870178 C18.45506793 52.76015336 17.92284116 56.75967468 14 62 C8.27468051 66.44004368 3.76369569 67.22231909 -3.3125 67.3125 C-4.43301758 67.35600586 -4.43301758 67.35600586 -5.57617188 67.40039062 C-10.85389405 67.46062802 -13.81528229 66.49699666 -18 63 C-19.5635348 59.87293041 -19.39958487 56.42017557 -19 53 C-18.34 52.01 -17.68 51.02 -17 50 C-14 49.6875 -14 49.6875 -11 50 C-8.57869669 52.42130331 -8.47159496 53.80111377 -7.875 57.125 C-7.70742188 58.03507812 -7.53984375 58.94515625 -7.3671875 59.8828125 C-7.24601562 60.58148438 -7.12484375 61.28015625 -7 62 C-3.8813291 62.7252723 -1.47740099 63.08881879 1.6875 62.5 C4.98364551 60.36195967 5.98390591 57.66639159 7 54 C7.45228728 50.0537553 7.48822145 46.12949656 7.51171875 42.16015625 C7.52966995 41.03806259 7.54762115 39.91596893 7.56611633 38.75987244 C7.6200749 35.19411925 7.65406951 31.62849885 7.6875 28.0625 C7.72068573 25.63735138 7.75517655 23.21222024 7.79101562 20.78710938 C7.87579316 14.85819201 7.94420413 8.92925715 8 3 C5.36 3 2.72 3 0 3 C0 2.01 0 1.02 0 0 Z " fill="#000000" transform="translate(49,23)"/>
<path d="M0 0 C3.53357368 1.76678684 5.50037877 2.82442063 7.0625 6.5 C6.98508829 9.59646834 6.07156343 10.7627115 4 13 C-0.69268293 12.36585366 -0.69268293 12.36585366 -2.3125 10.4375 C-5.16594554 8.00678714 -8.3658808 8.82127283 -12 9 C-14.62435847 15.54153371 -15.44465507 21.22992249 -15.3125 28.25 C-15.31572266 29.12140625 -15.31894531 29.9928125 -15.32226562 30.890625 C-15.30300839 37.20682791 -15.30300839 37.20682791 -13 43 C-9.94727535 43.89830839 -9.94727535 43.89830839 -7 44 C-7 45.32 -7 46.64 -7 48 C-15.91 48 -24.82 48 -34 48 C-34 46.68 -34 45.36 -34 44 C-30.535 43.505 -30.535 43.505 -27 43 C-26.67 30.13 -26.34 17.26 -26 4 C-28.64 4 -31.28 4 -34 4 C-34 3.01 -34 2.02 -34 1 C-28.72 1 -23.44 1 -18 1 C-17.34 2.98 -16.68 4.96 -16 7 C-15.51789063 6.57847656 -15.03578125 6.15695313 -14.5390625 5.72265625 C-13.90742188 5.17480469 -13.27578125 4.62695312 -12.625 4.0625 C-11.68527344 3.24458984 -11.68527344 3.24458984 -10.7265625 2.41015625 C-7.20958274 -0.46230912 -4.48307681 -0.37358973 0 0 Z " fill="#000000" transform="translate(321,41)"/>
<path d="M0 0 C5.5952381 0.5952381 5.5952381 0.5952381 8 3 C7.42307692 9.57692308 7.42307692 9.57692308 6 11 C2.625 11.375 2.625 11.375 -1 11 C-2.9375 8.5 -2.9375 8.5 -4 6 C-1.125 1.125 -1.125 1.125 0 0 Z " fill="#000000" transform="translate(77,79)"/>
<path d="M0 0 C2.9375 0.8125 2.9375 0.8125 4.9375 2.8125 C4.36057692 9.38942308 4.36057692 9.38942308 2.9375 10.8125 C-0.5 11 -0.5 11 -4.0625 10.8125 C-6.0625 8.8125 -6.0625 8.8125 -6.375 5.875 C-6.0625 2.8125 -6.0625 2.8125 -4.9375 0.875 C-3.0625 -0.1875 -3.0625 -0.1875 0 0 Z " fill="#000000" transform="translate(139.0625,79.1875)"/>
</svg>
