<svg version="1.1" id="Layer_1" xmlns="http://www.w3.org/2000/svg" xmlns:xlink="http://www.w3.org/1999/xlink" x="0px" y="0px"
	 width="100%" viewBox="0 0 238 211" enable-background="new 0 0 238 211" xml:space="preserve">
<path fill="#FFFEFE" opacity="1.000000" stroke="none" 
	d="
M239.000000,210.000000 
	C239.610413,213.038879 237.303009,211.964844 236.033310,211.967758 
	C216.001389,212.013702 195.969345,212.000000 175.627991,211.876801 
	C175.318665,211.753586 175.174194,211.377579 175.278915,210.966400 
	C175.015259,209.814377 174.646881,209.073547 174.236938,207.986252 
	C156.256226,165.072021 138.317047,122.504250 119.888367,78.774971 
	C107.324684,108.705330 95.290443,137.374420 83.064537,166.402191 
	C80.956383,170.390594 84.092758,169.164948 85.389717,169.185287 
	C97.905037,169.381714 110.422028,169.470856 122.945694,169.935501 
	C128.321365,183.519531 133.689880,196.758743 139.024384,210.224197 
	C138.990372,210.450455 139.127319,210.887070 139.093185,211.165039 
	C139.039368,211.628662 139.019684,211.814331 139.000000,212.000000 
	C94.327354,212.000000 49.654701,212.008606 4.982115,211.958023 
	C3.654386,211.956512 2.327358,211.333328 1.352288,210.410278 
	C23.351646,158.138977 45.021954,106.467110 66.632393,54.770218 
	C73.597534,38.108070 80.405106,21.380051 87.566772,4.370495 
	C87.990028,3.251868 88.131264,2.444912 88.317749,1.430043 
	C88.362984,1.222129 88.000000,1.000000 88.000000,1.000000 
	C109.020897,1.000000 130.041794,1.000000 151.349625,1.111078 
	C151.636566,1.222156 151.726730,1.638462 151.661285,2.052914 
	C151.970367,3.200701 152.344894,3.934035 152.754700,5.015306 
	C152.869690,5.686626 152.907928,6.027364 153.034988,6.330930 
	C177.106277,63.842091 201.154449,121.362961 225.288086,178.847961 
	C229.679199,189.307343 234.420410,199.619736 239.000000,210.000000 
z"/>
<path fill="#EB1001" opacity="1.000000" stroke="none" 
	d="
M239.000000,209.531342 
	C234.420410,199.619736 229.679199,189.307343 225.288086,178.847961 
	C201.154449,121.362961 177.106277,63.842091 153.034988,6.330930 
	C152.907928,6.027364 152.869690,5.686626 152.999252,4.618991 
	C155.120255,3.583184 157.031479,3.041722 158.943802,3.037738 
	C185.629120,2.982142 212.314575,3.000025 239.000000,3.000000 
	C239.000000,71.687561 239.000000,140.375122 239.000000,209.531342 
z"/>
<path fill="#EB1001" opacity="1.000000" stroke="none" 
	d="
M87.284752,4.682165 
	C80.405106,21.380051 73.597534,38.108070 66.632393,54.770218 
	C45.021954,106.467110 23.351646,158.138977 1.352286,209.910278 
	C1.000000,141.312439 1.000000,72.624878 1.468657,3.468681 
	C28.458342,3.000066 54.979511,2.965117 81.500107,3.072574 
	C83.430458,3.080395 85.356636,4.121477 87.284752,4.682165 
z"/>
<path fill="#EA0000" opacity="1.000000" stroke="none" 
	d="
M87.566772,4.370494 
	C85.356636,4.121477 83.430458,3.080395 81.500107,3.072574 
	C54.979511,2.965117 28.458342,3.000066 1.468657,3.000024 
	C1.000000,3.000000 1.000000,2.500000 1.468657,2.250185 
	C25.237545,2.000399 48.537811,2.022805 71.837975,1.983931 
	C77.316330,1.974791 82.794342,1.758791 88.272507,1.637956 
	C88.131264,2.444912 87.990028,3.251868 87.566772,4.370494 
z"/>
<path fill="#EA0000" opacity="1.000000" stroke="none" 
	d="
M239.000000,2.750000 
	C212.314575,3.000025 185.629120,2.982142 158.943802,3.037738 
	C157.031479,3.041722 155.120255,3.583184 152.963974,4.271053 
	C152.344894,3.934035 151.970367,3.200701 152.135590,2.191322 
	C181.450211,1.943518 210.225113,1.971759 239.000000,2.000000 
	C239.000000,2.000000 239.000000,2.500000 239.000000,2.750000 
z"/>
<path fill="#F38985" opacity="1.000000" stroke="none" 
	d="
M88.317749,1.430043 
	C82.794342,1.758791 77.316330,1.974791 71.837975,1.983931 
	C48.537811,2.022805 25.237545,2.000399 1.468657,2.000185 
	C2.325003,1.666667 3.649413,1.045214 4.975098,1.042480 
	C32.337536,0.986041 59.700127,1.000000 87.531342,1.000000 
	C88.000000,1.000000 88.362984,1.222129 88.317749,1.430043 
z"/>
<path fill="#F38985" opacity="1.000000" stroke="none" 
	d="
M239.000000,1.500000 
	C210.225113,1.971759 181.450211,1.943518 152.201019,1.776869 
	C151.726730,1.638462 151.636566,1.222156 151.818283,1.111078 
	C181.000000,1.000000 210.000000,1.000000 239.000000,1.500000 
z"/>
<path fill="#F38985" opacity="1.000000" stroke="none" 
	d="
M175.174194,211.377579 
	C175.174194,211.377579 175.318665,211.753586 175.159332,211.876801 
	C163.312439,212.000000 151.624878,212.000000 139.468658,212.000000 
	C139.019684,211.814331 139.039368,211.628662 139.552368,211.200500 
	C151.755188,211.097870 163.464691,211.237717 175.174194,211.377579 
z"/>
<path fill="#EB1001" opacity="1.000000" stroke="none" 
	d="
M83.256195,166.043503 
	C95.290443,137.374420 107.324684,108.705330 119.888367,78.774971 
	C138.317047,122.504250 156.256226,165.072021 173.993210,208.382599 
	C172.036758,209.416931 170.284470,209.945984 168.527924,209.960526 
	C158.705322,210.041748 148.881683,209.998611 139.058411,209.997940 
	C133.689880,196.758743 128.321365,183.519531 122.759590,169.533554 
	C120.814468,168.524521 119.064255,168.049026 117.310471,168.035461 
	C107.691429,167.961075 98.069679,168.096130 88.453598,167.911743 
	C86.709839,167.878296 84.988106,166.695618 83.256195,166.043503 
z"/>
<path fill="#EA0000" opacity="1.000000" stroke="none" 
	d="
M83.064537,166.402191 
	C84.988106,166.695618 86.709839,167.878296 88.453598,167.911743 
	C98.069679,168.096130 107.691429,167.961075 117.310471,168.035461 
	C119.064255,168.049026 120.814468,168.524521 122.752441,169.188721 
	C110.422028,169.470856 97.905037,169.381714 85.389717,169.185287 
	C84.092758,169.164948 80.956383,170.390594 83.064537,166.402191 
z"/>
<path fill="#EA0000" opacity="1.000000" stroke="none" 
	d="
M139.024384,210.224197 
	C148.881683,209.998611 158.705322,210.041748 168.527924,209.960526 
	C170.284470,209.945984 172.036758,209.416931 174.034760,208.729065 
	C174.646881,209.073547 175.015259,209.814377 175.278915,210.966400 
	C163.464691,211.237717 151.755188,211.097870 139.586502,210.922546 
	C139.127319,210.887070 138.990372,210.450455 139.024384,210.224197 
z"/>
</svg>